<?xml version="1.0" encoding="utf-8"?>
<!-- Generator: Adobe Illustrator 27.3.1, SVG Export Plug-In . SVG Version: 6.00 Build 0)  -->
<svg version="1.1" id="Layer_1" xmlns="http://www.w3.org/2000/svg" xmlns:xlink="http://www.w3.org/1999/xlink" x="0px" y="0px"
	 viewBox="0 0 540 100" style="enable-background:new 0 0 540 100;" xml:space="preserve">
<style type="text/css">
	.st0{fill:#FFFFFF;}
</style>
<path class="st0" d="M173.757,25.14l31.494,55.118h-11.294l-28.713-50.252c-0.635-1.108-1.7-1.233-2.128-1.233
	c-0.428,0-1.493,0.125-2.131,1.239l-28.71,50.246H120.98l31.491-55.111c2.214-3.867,6.191-6.177,10.645-6.177
	C167.568,18.969,171.545,21.279,173.757,25.14z M90.92,19.394c-4.665-1.335-9.511,0.532-12.078,4.638L50.143,70.561L21.064,24.032
	c-2.568-4.112-7.404-5.974-12.078-4.638c-4.656,1.335-7.783,5.488-7.783,10.336v50.527h9.804V29.73c0-0.215,0-0.712,0.685-0.909
	c0.688-0.191,0.946,0.234,1.06,0.407L41.83,75.762c1.763,2.813,4.8,4.495,8.122,4.495c3.325,0,6.362-1.682,8.125-4.501
	l29.079-46.529c0.111-0.173,0.365-0.604,1.06-0.407c0.685,0.197,0.685,0.694,0.685,0.909v50.527h9.804V29.73
	C98.704,24.882,95.577,20.728,90.92,19.394z M294.733,69.777c0,0.491-0.234,0.832-0.688,1.018c-0.455,0.197-0.862,0.102-1.203-0.252
	l-47.037-48.677c-3.101-3.202-7.775-4.189-11.931-2.525c-4.139,1.676-6.811,5.644-6.811,10.109v50.808h9.804V29.449
	c0-0.491,0.23-0.832,0.685-1.018c0.458-0.191,0.862-0.108,1.206,0.252l47.035,48.671c2.104,2.179,4.932,3.333,7.823,3.333
	c1.38,0,2.771-0.263,4.109-0.802c4.139-1.676,6.814-5.644,6.814-10.109V19.877h-9.804V69.777z M508.985,4.949h2.939v7.891h2.356
	V4.949h2.94V2.832h-8.235L508.985,4.949L508.985,4.949z M528.832,2.832l-2.614,6.353l-2.659-6.353h-3.157V12.84h2.311V6.704
	l2.55,6.136h1.755l2.614-6.227v6.227h2.247V2.832H528.832z M398.969,56.968c0,7.434-6.051,13.485-13.485,13.485H354.84
	c-7.434,0-13.485-6.051-13.485-13.485V19.877h-9.804v37.092c0,12.844,10.448,23.288,23.288,23.288h30.644
	c12.841,0,23.288-10.444,23.288-23.288V19.877h-9.804V56.968z M487.654,45.163h-38.52c-4.422,0-8.019-3.597-8.019-8.019
	s3.598-8.019,8.019-8.019h50.962v-9.441h-50.962c-9.627,0-17.459,7.832-17.459,17.459s7.831,17.459,17.459,17.459h38.52
	c4.422,0,8.019,3.597,8.019,8.019c0,4.422-3.598,8.019-8.019,8.019h-53.84v9.44h53.84c9.627,0,17.459-7.831,17.459-17.459
	C505.113,52.995,497.281,45.163,487.654,45.163z"/>
</svg>
